# xmcd CD database file
#
# Track frame offsets:
#	150
#	14350
#	33587
#	47565
#	66000
#	81697
#	98687
#	112767
#	129070
#	141602
#
# Disc length: 2145 seconds
#
# Revision: 2
# Processed by: cddbd v1.5.1PL2 Copyright (c) Steve Scherf et al.
# Submitted via: CDex 1.70beta2
#
DISCID=81085f0a
DTITLE=Steve Wariner - The Best Of Steve Wariner
DYEAR=1989
DGENRE=Country
TTITLE0=What I Didn't Do
TTITLE1=Starting Over Again
TTITLE2=Lynda
TTITLE3=Hold On (A Little Longer)
TTITLE4=Heart Trouble
TTITLE5=When I Could Come Home To You
TTITLE6=The Hand That Rocks The Cradle (Duet With Glen Campbell)
TTITLE7=The Domino Theory
TTITLE8=Precious Thing
TTITLE9=There For A While
EXTD=Courtesy of:  duensing@usa.net YEAR: 1989
EXTT0=
EXTT1=
EXTT2=
EXTT3=
EXTT4=
EXTT5=
EXTT6=
EXTT7=
EXTT8=
EXTT9=
PLAYORDER=
